<svg width="24" height="24" viewBox="0 0 24 24" fill="none" xmlns="http://www.w3.org/2000/svg">
<path d="M7.60434 14.9774C7.50237 14.9859 7.40064 14.9903 7.29866 14.9903C7.01969 14.9903 6.74837 14.9499 6.48268 14.8884L0.334899 21.0363C0.0331425 21.3376 0.0331425 21.8271 0.334899 22.1284L1.926 23.7199C2.22776 24.0213 2.71666 24.0213 3.01758 23.7199L10.4064 16.3325L9.03707 14.8551L7.60434 14.9774Z" fill="#3F71FF"/>
<path d="M23.7831 5.12807C23.4945 4.83969 23.0276 4.83969 22.7391 5.12807L18.7551 9.11201C18.3781 9.48859 17.7675 9.48859 17.3905 9.11201C17.0152 8.73572 17.0152 8.12559 17.3905 7.7494L21.3548 3.78589C21.6543 3.4861 21.6543 3.00009 21.3548 2.69961C21.0539 2.4002 20.5681 2.4002 20.2686 2.69961L16.3059 6.66272C15.9289 7.0397 15.319 7.0397 14.942 6.66272C14.5658 6.28658 14.5658 5.67601 14.942 5.30016L18.9252 1.31662C19.2145 1.0278 19.2145 0.559971 18.9252 0.270759C18.6367 -0.0181095 18.1689 -0.0181095 17.8796 0.270759L13.3979 4.75266C12.3204 5.83086 11.98 7.3443 12.3289 8.72141L15.3332 11.7259C16.7102 12.0735 18.2244 11.733 19.3007 10.6557L23.783 6.17402C24.0724 5.8852 24.0724 5.41689 23.7831 5.12807Z" fill="#3F71FF"/>
<path d="M2.01366 0.675815C1.86009 0.522193 1.65242 0.437958 1.43916 0.437958C1.39378 0.437958 1.34816 0.441829 1.30362 0.449277C1.04415 0.493183 0.821533 0.659742 0.707162 0.896815C-0.60561 3.61022 -0.0569804 6.85701 2.07403 8.98812L5.88646 12.8001C6.2626 13.1766 6.7712 13.3851 7.29866 13.3851C7.35506 13.3851 7.41161 13.3827 7.46801 13.3781L9.68149 13.1892L19.3335 23.6016C19.4834 23.7635 19.6933 23.8575 19.9145 23.8618C19.919 23.8618 19.9238 23.8618 19.9286 23.8618C20.1448 23.8618 20.3517 23.7764 20.5054 23.6239L22.1584 21.9705C22.3112 21.8181 22.3965 21.6113 22.3965 21.3957C22.3965 21.1802 22.3112 20.9732 22.1591 20.8208L2.01366 0.675815Z" fill="#3F71FF"/>
</svg>
