<svg height="511pt" viewBox="-4 1 511 511.99846" width="511pt" xmlns="http://www.w3.org/2000/svg"><path d="m101.21875 276.980469c0-3.179688-1.792969-6.082031-4.636719-7.507813l-83.9375-41.964844c-2.597656-1.296874-5.683593-1.164062-8.167969.367188-2.46875 1.527344-3.976562 4.226562-3.976562 7.140625v83.933594c0 2.910156 1.507812 5.609375 3.976562 7.140625 1.351563.832031 2.882813 1.253906 4.414063 1.253906 1.285156 0 2.570313-.296875 3.753906-.886719l83.9375-41.96875c2.84375-1.421875 4.636719-4.324219 4.636719-7.507812zm-83.933594 28.386719v-56.773438l56.777344 28.386719zm0 0"/><path d="m500.125 227.875c-2.472656-1.53125-5.5625-1.664062-8.167969-.367188l-83.933593 41.964844c-2.847657 1.425782-4.640626 4.328125-4.640626 7.507813 0 3.183593 1.792969 6.085937 4.640626 7.511719l83.933593 41.964843c1.183594.589844 2.472657.886719 3.753907.886719 1.53125 0 3.066406-.421875 4.414062-1.253906 2.472656-1.53125 3.976562-4.230469 3.976562-7.140625v-83.933594c.003907-2.910156-1.507812-5.613281-3.976562-7.140625zm-12.808594 77.492188-56.773437-28.386719 56.773437-28.382813zm0 0"/><path d="m243.90625 293.769531h16.789062v16.785157h-16.789062zm0 0"/><path d="m394.566406 349.832031-12.152344-45.132812c-8.582031-31.863281-8.582031-65.539063 0-97.402344l12.289063-45.636719c.210937-.773437.160156-1.53125.148437-2.296875 15.53125-17.175781 25.320313-41.597656 25.320313-68.742187v-8.113282c0-40.867187-28.117187-74.113281-62.679687-74.113281h-46.433594c0-4.636719-3.761719-8.394531-8.394532-8.394531h-92.328124c-4.636719 0-8.394532 3.757812-8.394532 8.394531h-54.828125c-34.5625 0-62.679687 33.246094-62.679687 74.109375v8.113282c0 27.144531 9.785156 51.566406 25.320312 68.746093-.007812.761719-.058594 1.523438.148438 2.296875l12.289062 45.636719c8.582032 31.863281 8.582032 65.542969 0 97.402344l-12.152344 45.132812-22.109374 53.054688c-13.453126 32.289062-9.277344 66.71875-3.378907 102.097656.671875 4.046875 4.175781 7.015625 8.277344 7.015625h318.949219c4.105468 0 7.609375-2.96875 8.277344-7.015625 5.898437-35.378906 10.074218-69.808594-3.378907-102.097656zm-175.839844-333.046875h75.542969v.765625c0 8.832031-7.1875 16.019531-16.019531 16.019531h-43.5c-8.832031 0-16.023438-7.1875-16.023438-16.019531zm-117.507812 65.714844c0-31.605469 20.589844-57.320312 45.894531-57.320312h55.816407c3.460937 14.40625 16.367187 25.179687 31.820312 25.179687h43.5c15.449219 0 28.359375-10.773437 31.820312-25.179687h47.421876c25.304687 0 45.894531 25.714843 45.894531 57.320312v8.117188c0 42.59375-27.972657 77.25-62.359375 77.25-4.636719 0-8.394532 3.757812-8.394532 8.394531s3.757813 8.394531 8.394532 8.394531c11.519531 0 22.445312-3.007812 32.328125-8.292969l-7.152344 26.566407c-2.101563 7.808593-3.660156 15.730468-4.820313 23.695312h-218.160156c-1.15625-7.964844-2.714844-15.886719-4.820312-23.695312l-7.152344-26.566407c9.882812 5.285157 20.804688 8.292969 32.328125 8.292969 4.636719 0 8.394531-3.757812 8.394531-8.394531s-3.757812-8.394531-8.394531-8.394531c-34.386719 0-62.359375-34.65625-62.359375-77.25zm37.1875 226.566406c5.773438-21.4375 7.957031-43.636718 6.597656-65.65625h98.902344v25.179688c0 4.632812 3.761719 8.390625 8.394531 8.390625 4.636719 0 8.394531-3.757813 8.394531-8.390625v-25.183594h98.90625c-1.359374 22.019531.828126 44.21875 6.597657 65.660156l10.09375 37.476563c-11.507813 11.046875-58.804688 22.765625-123.988281 22.765625-65.1875 0-112.484376-11.71875-123.992188-22.765625zm266.234375 186.144532h-108.675781l13.683594-20.523438c2.570312-3.855469 1.527343-9.070312-2.328126-11.640625-3.867187-2.582031-9.074218-1.53125-11.640624 2.328125l-16.785157 25.183594c-.957031 1.433594-1.257812 3.050781-1.253906 4.65625h-50.671875c0-1.605469-.296875-3.222656-1.253906-4.65625l-16.789063-25.183594c-2.574219-3.859375-7.78125-4.914062-11.636719-2.328125-3.859374 2.570313-4.898437 7.785156-2.328124 11.640625l13.679687 20.523438h-108.679687c-4.816407-30.378907-7.445313-59.699219 3.457031-85.863282l19.210937-46.109375c21.742188 13.855469 71.785156 22.859375 129.671875 22.859375s107.929688-9.003906 129.667969-22.859375l19.210938 46.109375c10.902343 26.164063 8.277343 55.484375 3.460937 85.863282zm0 0"/><path d="m210.335938 184.652344c21.144531 0 39.050781-15.804688 41.648437-36.765625.570313-4.601563-2.699219-8.789063-7.296875-9.359375-4.621094-.59375-8.796875 2.691406-9.363281 7.296875-1.554688 12.566406-12.300781 22.042969-24.988281 22.042969-4.636719 0-8.394532 3.757812-8.394532 8.394531s3.757813 8.390625 8.394532 8.390625zm0 0"/><path d="m302.40625 184.652344c4.632812 0 8.394531-3.757813 8.394531-8.394532 0-4.632812-3.761719-8.390624-8.394531-8.390624-12.691406 0-23.433594-9.476563-24.988281-22.046876-.566407-4.601562-4.710938-7.890624-9.359375-7.296874-4.597656.566406-7.871094 4.757812-7.296875 9.359374 2.59375 20.964844 20.5 36.769532 41.644531 36.769532zm0 0"/></svg>