<svg height="511pt" viewBox="0 -12 511.99894 511" width="511pt" xmlns="http://www.w3.org/2000/svg"><path d="m325.066406 192.738281c18.746094 0 33.988282-15.246093 33.988282-33.988281 0-4.691406-3.800782-8.496094-8.496094-8.496094-4.699219 0-8.5 3.804688-8.5 8.496094 0 9.375-7.625 16.996094-16.992188 16.996094-9.367187 0-16.996094-7.621094-16.996094-16.996094 0-4.691406-3.796874-8.496094-8.496093-8.496094-4.695313 0-8.496094 3.804688-8.496094 8.496094 0 18.742188 15.242187 33.988281 33.988281 33.988281zm0 0"/><path d="m155.128906 150.253906c-4.699218 0-8.496094 3.804688-8.496094 8.496094 0 9.375-7.628906 16.996094-16.996093 16.996094-9.367188 0-16.992188-7.621094-16.992188-16.996094 0-4.691406-3.800781-8.496094-8.5-8.496094-4.695312 0-8.496093 3.804688-8.496093 8.496094 0 18.742188 15.242187 33.988281 33.988281 33.988281 18.742187 0 33.988281-15.246093 33.988281-33.988281 0-4.691406-3.800781-8.496094-8.496094-8.496094zm0 0"/><path d="m223.105469 243.722656c20.105469 0 38.640625-7.035156 49.597656-18.828125 3.191406-3.433593 2.992187-8.8125-.441406-12.007812-3.417969-3.191407-8.796875-3.003907-12.003907.441406-7.683593 8.265625-21.914062 13.398437-37.152343 13.398437-15.40625 0-29.71875-5.21875-37.347657-13.617187-3.152343-3.488281-8.53125-3.722656-11.996093-.582031-3.476563 3.152344-3.734375 8.527344-.582031 12 10.898437 12.015625 29.570312 19.195312 49.925781 19.195312zm0 0"/><path d="m452.523438 158.75h-6.40625c-.167969 0-.308594.085938-.46875.097656-4-12.933594-9.191407-25.082031-15.851563-36.132812-22.847656-37.914063-59.753906-62.402344-106.726563-70.824219-29.367187-5.269531-58.707031-3.308594-85.703124 5.539063 4.929687-29.40625 17.078124-45.320313 17.882812-46.34375l-6.652344-5.28125-6.640625-5.304688c-.980469 1.234375-16.554687 21.394531-21.84375 57.933594-27.773437-9.652344-58.089843-11.992188-88.472656-6.542969-46.972656 8.421875-83.882813 32.90625-106.726563 70.824219-23.765624 39.429687-30.703124 91.648437-20.0625 150.992187 10.769532 60.085938 38.566407 117.753907 76.253907 158.210938 34.320312 36.84375 73.335937 56.371093 111.707031 56.371093 6.628906 0 13.234375-.582031 19.796875-1.757812 4.945313-.886719 9.890625-2.128906 14.742187-3.695312 4.855469 1.566406 9.800782 2.808593 14.746094 3.695312 61.011719 10.921875 125.625-29.957031 169.429688-106.859375h44.636718c30.785157 0 55.835938-25.046875 55.835938-55.835937v-105.605469c0-32.796875-26.6875-59.480469-59.476562-59.480469zm-207.421876 311.050781c-5.011718-.894531-10.035156-2.226562-14.921874-3.949219-1.839844-.648437-3.816407-.648437-5.65625 0-4.886719 1.722657-9.90625 3.054688-14.917969 3.949219-38.6875 6.925781-79.882813-10.632812-116.0625-49.46875-35.523438-38.128906-61.753907-92.667969-71.96875-149.621093-9.90625-55.230469-3.714844-103.375 17.894531-139.226563 20.242188-33.59375 53.152344-55.335937 95.175781-62.867187 28.953125-5.195313 57.785157-2.589844 83.867188 7.320312-.460938 11.816406.257812 24.945312 2.667969 39.328125-6.332032-1.109375-12.105469-3.113281-16.488282-6.03125-3.898437-2.625-9.175781-1.550781-11.78125 2.347656-2.605468 3.902344-1.550781 9.179688 2.355469 11.78125 9.558594 6.382813 22.464844 9.894531 36.335937 9.894531 15.316407 0 29.601563-4.367187 39.191407-11.96875 3.675781-2.917968 4.296875-8.261718 1.375-11.941406-2.914063-3.675781-8.265625-4.292968-11.933594-1.375-4.429687 3.515625-10.839844 5.964844-18 7.25l-3.773437.09375c-2.636719-14.445312-3.488282-27.542968-3.019532-39.09375 26.269532-10.144531 55.390625-12.851562 84.621094-7.605468 42.019531 7.53125 74.929688 29.273437 95.175781 62.867187 20.28125 33.652344 26.792969 78.21875 19.34375 129.230469h-270.957031c-4.695312 0-8.496094 3.804687-8.496094 8.496094v101.964843c0 4.691407 3.800782 8.496094 8.496094 8.496094h228.234375c-39.464844 64.132813-95.941406 99.253906-146.757813 90.128906zm249.90625-145.96875c0 21.417969-17.425781 38.84375-38.84375 38.84375h-284.042968v-84.96875h16.996094v16.992188c0 4.691406 3.800781 8.496093 8.496093 8.496093 4.699219 0 8.5-3.804687 8.5-8.496093v-16.992188h16.992188v33.984375c0 4.695313 3.800781 8.5 8.5 8.5 4.695312 0 8.496093-3.804687 8.496093-8.5v-33.984375h16.992188v16.992188c0 4.691406 3.800781 8.496093 8.5 8.496093 4.695312 0 8.496094-3.804687 8.496094-8.496093v-16.992188h16.996094v33.984375c0 4.695313 3.800781 8.5 8.496093 8.5 4.699219 0 8.496094-3.804687 8.496094-8.5v-33.984375h16.996094v16.992188c0 4.691406 3.800781 8.496093 8.496093 8.496093 4.699219 0 8.5-3.804687 8.5-8.496093v-16.992188h16.992188v33.984375c0 4.695313 3.800781 8.5 8.5 8.5 4.695312 0 8.496094-3.804687 8.496094-8.5v-33.984375h16.992187v16.992188c0 4.691406 3.800781 8.496093 8.496094 8.496093 4.699219 0 8.5-3.804687 8.5-8.496093v-16.992188h16.992187v33.984375c0 4.695313 3.800782 8.5 8.5 8.5 4.695313 0 8.496094-3.804687 8.496094-8.5v-31.484375c1.472656-.472656 2.730469-1.34375 3.753906-2.5h4.746094c16.632813 0 31.675782-6.886719 42.484375-17.933593v64.058593zm0 0"/></svg>