<svg height="511pt" viewBox="-13 1 511 511.99961" width="511pt" xmlns="http://www.w3.org/2000/svg"><path d="m476.886719 493.949219c-71.578125 7.9375-128.34375-23.757813-128.910157-24.078125-1.929687-1.097656-4.210937-1.394532-6.351562-.804688-.902344.242188-90.945312 24.375-163.460938 8.28125-45.207031-10.050781-87.851562-41.898437-118.988281-65.148437-4.183593-3.125-8.144531-6.082031-11.863281-8.804688-5.082031-3.714843-13.160156-6.808593-20.285156-9.535156-3.199219-1.222656-7.582032-2.898437-8.519532-3.488281-.816406-.636719-1.261718-1.578125-1.261718-2.648438v-19.410156c.402344-15.359375 64.800781-251.691406 74.785156-281.757812.246094-.355469 1.207031-1.050782 1.914062-1.386719l127.441407-58.203125 41.199219 53.636718c2.03125 2.78125 1.839843 6.664063-.449219 9.226563l-40.710938 45.640625c-2.664062 2.992188-7.148437 3.316406-9.933593.992188l-16.460938-15.175782c-1.925781-1.777344-4.667969-2.367187-7.246094-1.894531-2.578125.460937-4.886718 2.300781-6.074218 4.636719-1.378907 2.707031-13.839844 6.03125-26.558594 6.125l-4.144532-.417969c-3.300781-.394531-6.539062 1.335937-8.164062 4.265625-1.625 2.921875-1.351562 6.535156.695312 9.1875 3.535157 4.570312 6.289063 8.242188 7.851563 10.347656l8.148437 138.511719c-5.050781 19.671875-9.679687 25.261719-10.828124 26.378906-3.394532 1.074219-5.855469 4.242188-5.855469 7.988281 0 4.625 3.75 8.375 8.375 8.375 9.496093 0 17.570312-12.480468 24.046875-36.84375 66.605468-49.835937 124.734375-2.804687 129.292968 1.066407 21.152344 21.230469 22.464844 35.335937 22.507813 35.960937.101563 4.539063 3.8125 8.191406 8.375 8.191406 4.625 0 8.375-3.75 8.375-8.375 0-1.925781-.695313-18.449218-22.371094-42.320312 20.4375-25.132812 43.714844-39.605469 69.34375-42.757812 44.179688-5.441407 81.351563 24.273437 81.71875 24.570312 3.585938 2.921875 8.855469 2.386719 11.777344-1.199219 2.917969-3.578125 2.390625-8.84375-1.183594-11.769531-1.726562-1.410156-42.84375-34.492188-94.183593-28.246094-30.007813 3.640625-56.945313 19.871094-80.167969 48.273438-18.839844-12.816406-72.875-41.820313-133.308594-3.886719l-7.496094-127.382813c-.074219-1.375-.496093-2.710937-1.214843-3.882812 7.492187-.886719 16.417968-2.84375 22.890624-7.101562l10.792969 9.941406c10.035157 8.429687 24.757813 7.382812 33.488281-2.40625l40.714844-45.640625c7.507813-8.414063 8.136719-21.132813 1.359375-30.414063l-45.382812-59.089844c-2.367188-3.085937-6.558594-4.132812-10.121094-2.515624l-133.394531 60.929687c-1.394532.613281-8.46875 4.035156-10.796875 11.035156-4.742188 14.234375-75.792969 267.621094-75.792969 287.359375v19.441406c0 6.238282 2.800781 12.007813 7.679688 15.828126 2.441406 1.914062 6.085937 3.359374 12.867187 5.949218 5.53125 2.121094 13.105469 5.019532 16.378906 7.410156 3.679688 2.691407 7.597657 5.617188 11.730469 8.703126 32.351562 24.164062 76.65625 57.25 125.382812 68.078124 69.355469 15.414063 150.777344-3.222656 168.222657-7.617187 11.65625 6.019531 54.414062 25.921875 110.386719 25.921875 8.261718 0 16.8125-.433594 25.589843-1.410156 4.597657-.507813 7.90625-4.648438 7.398438-9.246094-.511719-4.601562-4.667969-7.941406-9.25-7.394531zm0 0"/><path d="m435.894531 392.484375c-.460937-4.191406-4.011719-7.453125-8.324219-7.453125-4.625 0-8.375 3.75-8.375 8.375 0 5.59375 4.128907 24.53125 57.238282 33.382812.464844.074219.933594.113282 1.386718.113282 4.019532 0 7.566407-2.902344 8.25-6.996094.757813-4.5625-2.324218-8.875-6.882812-9.636719-37.140625-6.191406-42.796875-16.671875-43.292969-17.785156zm0 0"/><path d="m343.4375 101.714844h25.515625v23.726562c0 4.625 3.75 8.375 8.375 8.375h66.988281c4.625 0 8.375-3.75 8.375-8.375v-23.726562h25.125c3.207032 0 6.136719-1.832032 7.535156-4.722656 1.398438-2.890626 1.027344-6.324219-.960937-8.84375l-67.191406-85.128907c-3.179688-4.027343-9.96875-4.027343-13.148438 0l-67.1875 85.132813c-1.988281 2.515625-2.359375 5.953125-.960937 8.839844 1.398437 2.890624 4.324218 4.722656 7.535156 4.722656zm67.1875-79.988282 49.914062 63.238282h-16.222656c-4.625 0-8.375 3.75-8.375 8.375v23.730468h-50.242187v-23.730468c0-4.625-3.75-8.375-8.375-8.375h-16.613281zm0 0"/><path d="m452.691406 150.5625c0-4.621094-3.75-8.371094-8.375-8.371094h-66.992187c-4.625 0-8.375 3.75-8.375 8.371094v25.125c0 4.625 3.75 8.375 8.375 8.375h66.992187c4.625 0 8.375-3.75 8.375-8.375zm-16.75 16.75h-50.242187v-8.375h50.242187zm0 0"/><path d="m444.316406 192.433594h-66.988281c-4.625 0-8.375 3.75-8.375 8.375s3.75 8.375 8.375 8.375h66.988281c4.625 0 8.375-3.75 8.375-8.375s-3.75-8.375-8.375-8.375zm0 0"/><path d="m275.085938 435.464844c-109.683594 23.488281-156.609376-51.554688-158.554688-54.753906-2.390625-3.957032-7.53125-5.230469-11.480469-2.855469-3.964843 2.382812-5.25 7.527343-2.871093 11.488281.554687.921875 13.878906 22.796875 42.375 41.429688 19.628906 12.835937 49.566406 25.910156 90.0625 25.910156 13.484374 0 28.144531-1.449219 43.976562-4.839844 4.519531-.96875 7.402344-5.421875 6.433594-9.945312-.96875-4.519532-5.4375-7.414063-9.941406-6.433594zm0 0"/></svg>