<?xml version="1.0" encoding="iso-8859-1"?>
<!-- Generator: Adobe Illustrator 16.0.0, SVG Export Plug-In . SVG Version: 6.00 Build 0)  -->
<!DOCTYPE svg PUBLIC "-//W3C//DTD SVG 1.1//EN" "http://www.w3.org/Graphics/SVG/1.1/DTD/svg11.dtd">
<svg version="1.1" id="Capa_1" xmlns="http://www.w3.org/2000/svg" xmlns:xlink="http://www.w3.org/1999/xlink" x="0px" y="0px"
	 width="942.363px" height="942.362px" viewBox="0 0 942.363 942.362" style="enable-background:new 0 0 942.363 942.362;"
	 xml:space="preserve">
<g>
	<g>
		<path d="M680.994,286.257V208.04C680.994,93.327,587.668,0,472.955,0h-3.547c-114.714,0-208.04,93.326-208.04,208.04v238.243
			c-53.034,54.749-82.197,126.663-82.197,203.068c0,161.566,130.995,293.011,292.01,293.011s292.01-131.444,292.01-293.011
			c0-77.999-30.375-151.329-85.527-206.481c-55.153-55.153-128.483-85.528-206.482-85.528c-51.623,0-101.196,13.317-144.812,38.306
			V208.04c0-78.873,64.166-143.04,143.039-143.04h3.547c78.873,0,143.039,64.167,143.039,143.04v78.217H680.994z M471.181,877.362
			c-89.807,0-167.596-52.653-204.387-128.837c-1.925-3.985-3.729-8.042-5.426-12.152c-11.071-26.829-17.197-56.218-17.197-87.021
			c0-30.345,5.915-59.781,17.197-86.992c11.262-27.162,27.874-52.108,49.293-73.528c5.044-5.043,10.289-9.811,15.707-14.313
			c40.638-33.781,91.309-52.176,144.812-52.176c60.637,0,117.644,23.613,160.52,66.49c42.877,42.877,66.49,99.884,66.49,160.521
			C698.191,775.077,596.354,877.362,471.181,877.362z"/>
		<path d="M471.181,509.475c-48.756,0-88.421,39.666-88.421,88.421c0,37.377,23.199,69.425,55.921,82.435v3.196v65v52.526h65
			v-52.526v-65v-3.196c32.722-13.01,55.921-45.056,55.921-82.435C559.602,549.14,519.937,509.475,471.181,509.475z M471.181,574.475
			c12.915,0,23.421,10.507,23.421,23.421c0,13.033-10.507,23.638-23.421,23.638s-23.421-10.604-23.421-23.638
			C447.76,584.981,458.266,574.475,471.181,574.475z"/>
	</g>
</g>
<g>
</g>
<g>
</g>
<g>
</g>
<g>
</g>
<g>
</g>
<g>
</g>
<g>
</g>
<g>
</g>
<g>
</g>
<g>
</g>
<g>
</g>
<g>
</g>
<g>
</g>
<g>
</g>
<g>
</g>
</svg>
