<?xml version="1.0" encoding="iso-8859-1"?>
<!-- Generator: Adobe Illustrator 18.0.0, SVG Export Plug-In . SVG Version: 6.00 Build 0)  -->
<!DOCTYPE svg PUBLIC "-//W3C//DTD SVG 1.1//EN" "http://www.w3.org/Graphics/SVG/1.1/DTD/svg11.dtd">
<svg version="1.1" id="Capa_1" xmlns="http://www.w3.org/2000/svg" xmlns:xlink="http://www.w3.org/1999/xlink" x="0px" y="0px"
	 viewBox="0 0 229.202 229.202" style="enable-background:new 0 0 229.202 229.202;" xml:space="preserve">
<g>
	<path d="M56.334,132.905c1.076,0.538,2.221,0.794,3.348,0.794c2.752,0,5.4-1.52,6.715-4.148L91.33,79.687
		c1.852-3.706,0.35-8.211-3.354-10.063c-3.705-1.851-8.211-0.352-10.063,3.353L52.98,122.842
		C51.127,126.547,52.629,131.052,56.334,132.905z"/>
	<path d="M90.334,132.905c1.076,0.538,2.221,0.794,3.348,0.794c2.752,0,5.4-1.52,6.715-4.148l24.934-49.864
		c1.852-3.706,0.35-8.211-3.354-10.063c-3.709-1.851-8.211-0.352-10.063,3.353L86.98,122.842
		C85.127,126.547,86.629,131.052,90.334,132.905z"/>
	<path d="M124.334,132.905c1.076,0.538,2.221,0.794,3.348,0.794c2.752,0,5.4-1.52,6.715-4.148l24.934-49.864
		c1.852-3.706,0.35-8.211-3.354-10.063c-3.707-1.851-8.211-0.352-10.063,3.353l-24.934,49.865
		C119.127,126.547,120.629,131.052,124.334,132.905z"/>
	<path d="M229.199,150.922c0-0.112,0-0.225,0-0.336l-0.041-20.493c0.01-0.221,0.006-0.44,0.012-0.66
		c0.016-0.539,0.023-1.078,0.02-1.617c-0.004-0.395-0.014-0.791-0.027-1.19c-0.006-0.158-0.004-0.314-0.012-0.472
		c-0.004-0.182-0.014-0.362-0.029-0.541c-0.006-0.084-0.016-0.168-0.021-0.252c-0.035-0.546-0.082-1.09-0.135-1.631
		c-0.031-0.295-0.063-0.59-0.1-0.884c-0.057-0.485-0.121-0.97-0.195-1.452c-0.064-0.416-0.139-0.83-0.215-1.244
		c-0.068-0.369-0.131-0.738-0.207-1.104c-0.17-0.799-0.353-1.595-0.568-2.384c-0.773-2.846-1.852-5.642-3.205-8.315
		c-2.662-6.172-5.808-12.176-9.352-17.846c-20.668-33.106-54.084-54.879-91.875-60.679c-2.52-0.387-5.059-0.702-7.615-0.945
		c-4.23-0.402-8.508-0.607-12.818-0.607c-24.701,0-48.885,6.947-69.936,20.091c-0.873,0.546-1.726,1.114-2.57,1.694
		c-0.207,0.142-0.416,0.284-0.621,0.429c-0.797,0.56-1.582,1.131-2.351,1.72c-0.201,0.154-0.399,0.314-0.6,0.473
		c-0.582,0.455-1.156,0.922-1.723,1.395c-0.27,0.225-0.543,0.449-0.809,0.678c-0.644,0.554-1.275,1.119-1.896,1.695
		c-0.33,0.307-0.654,0.618-0.979,0.931c-0.363,0.349-0.719,0.702-1.074,1.059c-0.545,0.55-1.082,1.108-1.609,1.676
		c-0.303,0.327-0.607,0.653-0.904,0.985c-0.371,0.414-0.734,0.832-1.096,1.254c-0.232,0.273-0.459,0.551-0.688,0.828
		c-0.592,0.717-1.17,1.444-1.73,2.183c-0.215,0.282-0.428,0.563-0.639,0.848c-0.332,0.452-0.662,0.905-0.982,1.364
		c-0.373,0.531-0.734,1.068-1.092,1.61c-0.322,0.489-0.635,0.985-0.945,1.482c-0.26,0.417-0.514,0.836-0.766,1.258
		c-0.226,0.384-0.457,0.765-0.678,1.153c-0.412,0.729-0.811,1.465-1.197,2.209c-0.166,0.317-0.326,0.637-0.486,0.956
		c-0.408,0.814-0.809,1.633-1.184,2.465c-0.049,0.106-0.094,0.214-0.141,0.321c-0.391,0.874-0.762,1.759-1.117,2.652
		c-0.066,0.166-0.135,0.333-0.199,0.5c-0.379,0.976-0.74,1.961-1.078,2.957c-0.025,0.075-0.049,0.15-0.072,0.227
		c-0.34,1.012-0.656,2.033-0.951,3.064c-0.012,0.045-0.025,0.088-0.039,0.133c-0.281,1-0.537,2.012-0.777,3.029
		c-0.025,0.104-0.057,0.205-0.08,0.309c-0.031,0.133-0.051,0.266-0.082,0.398c-0.184,0.818-0.35,1.638-0.506,2.458
		c-0.105,0.566-0.201,1.136-0.293,1.706c-0.065,0.396-0.127,0.794-0.184,1.191c-0.438,2.994-0.682,5.99-0.73,8.979
		C0.008,106.701,0,106.772,0,106.844v1.284v1.024l0.008,21.87c0,0.109,0.004,0.219,0.008,0.328
		c0.045,12.986,3.707,25.67,10.6,36.701c12.857,20.589,35.039,32.881,59.34,32.881c13.053,0,25.83-3.67,36.951-10.614
		c8.727-5.451,18.75-8.333,28.988-8.333c8.775,0,17.525,2.127,25.324,6.154c2.869,1.724,10.91,5.38,14.225,6.142
		c3.26,0.753,6.598,1.136,9.916,1.136c20.521,0,38.088-13.98,42.721-34.004c0.729-3.161,1.104-6.424,1.117-9.703
		c0.004-0.11,0.006-0.22,0.004-0.33L229.199,150.922z M15.024,106.937c0.049-3.413,0.414-6.767,1.063-10.038
		c0.045-0.223,0.09-0.445,0.137-0.667c0.172-0.819,0.369-1.631,0.578-2.438c0.068-0.263,0.131-0.529,0.203-0.791
		c0.279-1.015,0.58-2.021,0.916-3.016c0.01-0.031,0.023-0.062,0.033-0.093c0.328-0.966,0.688-1.919,1.068-2.861
		c0.096-0.24,0.199-0.476,0.301-0.714c0.32-0.768,0.658-1.526,1.014-2.276c0.101-0.214,0.203-0.427,0.307-0.64
		c0.432-0.879,0.883-1.75,1.361-2.605c0.027-0.049,0.053-0.099,0.08-0.146c1.088-1.932,2.295-3.795,3.613-5.583
		c0.045-0.06,0.09-0.118,0.135-0.179c0.613-0.824,1.252-1.633,1.912-2.424c0.063-0.074,0.123-0.15,0.188-0.225
		c1.426-1.689,2.959-3.298,4.594-4.814c0.059-0.053,0.117-0.104,0.176-0.156c0.709-0.652,1.44-1.283,2.186-1.9
		c0.211-0.174,0.426-0.346,0.639-0.516c0.631-0.506,1.275-0.996,1.93-1.475c0.236-0.172,0.469-0.348,0.707-0.518
		c0.867-0.613,1.752-1.212,2.662-1.78c18.664-11.653,40.1-17.813,61.99-17.813c40.787,0,78.016,20.626,99.586,55.178
		c3.186,5.096,6.008,10.494,8.389,16.045c0.068,0.159,0.143,0.316,0.223,0.471c0.934,1.816,1.672,3.712,2.193,5.633
		c0.021,0.085,0.039,0.173,0.063,0.258c0.109,0.424,0.213,0.848,0.303,1.271c0.311,1.472,0.506,2.998,0.586,4.558
		c0.002,0.015,0.002,0.03,0.004,0.044c0.002,0.072,0.006,0.145,0.008,0.217c0.037,0.906,0.039,1.759-0.002,2.594
		c-0.002,0.068-0.004,0.137-0.004,0.205c-0.094,1.634-0.32,3.268-0.697,4.896c-3.049,13.177-14.605,22.379-28.104,22.379h-0.002
		c-2.186,0-4.385-0.252-6.529-0.748c-1.746-0.436-8.322-3.436-9.766-4.31c-0.215-0.143-0.438-0.274-0.666-0.395
		c-9.992-5.221-21.232-7.98-32.506-7.98c-13.049,0-25.82,3.669-36.934,10.611c-8.734,5.454-18.764,8.337-29.004,8.337
		c-19.092,0-36.52-9.655-46.617-25.827c-5.324-8.525-8.15-18.123-8.338-27.918v-0.521c-0.004-0.321,0.004-0.644,0.006-0.965
		C15.014,107.18,15.021,107.059,15.024,106.937z M185.359,180.417c-2.184,0-4.383-0.253-6.533-0.75
		c-1.746-0.436-8.314-3.432-9.758-4.306c-0.217-0.143-0.441-0.276-0.672-0.396c-9.99-5.221-21.23-7.979-32.502-7.979
		c-13.051,0-25.822,3.669-36.936,10.611c-8.734,5.453-18.764,8.336-29.004,8.336c-19.092,0-36.518-9.654-46.617-25.828
		c-0.141-0.225-0.271-0.453-0.41-0.68c12.68,11.549,29.287,18.107,47.027,18.107c13.053,0,25.83-3.671,36.951-10.615
		c8.727-5.451,18.75-8.333,28.986-8.333c8.777,0,17.527,2.127,25.328,6.155c2.863,1.722,10.904,5.377,14.225,6.143
		c3.258,0.753,6.592,1.135,9.912,1.135h0.004c9.828-0.001,18.975-3.215,26.352-8.757
		C207.164,173.578,196.99,180.417,185.359,180.417z"/>
</g>
<g>
</g>
<g>
</g>
<g>
</g>
<g>
</g>
<g>
</g>
<g>
</g>
<g>
</g>
<g>
</g>
<g>
</g>
<g>
</g>
<g>
</g>
<g>
</g>
<g>
</g>
<g>
</g>
<g>
</g>
</svg>
